<?xml version="1.0" encoding="UTF-8"?> <svg xmlns="http://www.w3.org/2000/svg" width="67" height="57" viewBox="0 0 67 57" fill="none"> <path fill-rule="evenodd" clip-rule="evenodd" d="M50.3709 6.552L67.0001 28.7249H33.7407L50.3709 6.552Z" fill="#4EC9F5"></path> <path fill-rule="evenodd" clip-rule="evenodd" d="M33.7407 0.480957L54.9243 28.7249H12.5586L33.7407 0.480957Z" fill="#17A0D9"></path> <path fill-rule="evenodd" clip-rule="evenodd" d="M17.1124 6.552L33.7423 28.7249H0.48291L17.1124 6.552Z" fill="#1785C6"></path> <path d="M2.45609 46.1654L0.23742 44.2636C0.645884 43.658 1.22355 43.1368 1.96999 42.7C2.71671 42.2634 3.67459 42.0449 4.84353 42.0449C5.74513 42.0449 6.55167 42.1859 7.26315 42.4676C7.97434 42.7494 8.57293 43.1403 9.05904 43.6403C9.54501 44.1403 9.91472 44.7355 10.1683 45.4257C10.4219 46.1158 10.5488 46.8627 10.5488 47.6654C10.5488 48.4684 10.4079 49.2115 10.126 49.8946C9.84452 50.578 9.44996 51.1694 8.94279 51.6697C8.4359 52.1694 7.82987 52.5606 7.12569 52.8422C6.42152 53.1238 5.64658 53.265 4.80158 53.265C3.87176 53.265 3.01591 53.0887 2.23423 52.7366C1.4524 52.3844 0.751622 51.807 0.131836 51.0039L2.41369 49.1656C2.61083 49.5037 2.91383 49.8032 3.3223 50.0638C3.73076 50.3243 4.21673 50.4546 4.78035 50.4546C5.48452 50.4546 6.02008 50.3102 6.38614 50.0214C6.75234 49.7329 7.01294 49.2714 7.16796 48.6375H3.13219V46.5456H7.16796C6.99876 45.9963 6.71721 45.5738 6.32265 45.2779C5.92837 44.982 5.41418 44.8342 4.78035 44.8342C4.16042 44.8342 3.66744 44.9645 3.3011 45.2249C2.93504 45.4856 2.65323 45.7992 2.45609 46.1654Z" fill="#1785C6"></path> <path d="M18.2518 52.9269L16.0333 46.5246L13.6457 52.9269H9.90576L13.9837 42.4043H18.125L21.9919 52.9269H18.2518Z" fill="#1785C6"></path> <path d="M26.201 46.2289C26.5107 46.2429 26.8139 46.2852 27.1096 46.3555L29.5184 42.4043H33.3428L30.0254 47.4965C30.9128 48.0882 31.6173 48.842 32.1384 49.7573C32.6596 50.6731 33.0751 51.7296 33.3849 52.9269H29.5607C29.4055 52.1944 29.2227 51.5815 29.0112 51.0886C28.8 50.5955 28.557 50.1977 28.2822 49.8947C28.0077 49.5919 27.6978 49.3629 27.3524 49.2082C27.0075 49.053 26.6236 48.9474 26.201 48.8911V52.9269H22.7358V42.4043H26.201V46.2289Z" fill="#1785C6"></path> <path d="M40.6791 48.3417H40.2355C39.8551 48.3417 39.4713 48.3594 39.0837 48.3946C38.6967 48.4297 38.3513 48.4967 38.0484 48.5953C37.7457 48.6938 37.4955 48.8382 37.2985 49.0284C37.1014 49.2186 37.0026 49.4686 37.0026 49.7785C37.0026 49.9758 37.0483 50.1447 37.1398 50.2857C37.2314 50.4264 37.3476 50.5391 37.4886 50.624C37.6296 50.7082 37.7915 50.768 37.9745 50.8034C38.1578 50.8386 38.3336 50.8561 38.5027 50.8561C39.2073 50.8561 39.7459 50.6624 40.1193 50.275C40.4925 49.8878 40.6791 49.3629 40.6791 48.7009V48.3417ZM34.3191 43.8411C34.9388 43.2493 35.6607 42.8057 36.4849 42.5099C37.3089 42.2143 38.1507 42.0662 39.0099 42.0662C39.8974 42.0662 40.6475 42.1754 41.2601 42.3939C41.8729 42.612 42.3695 42.9502 42.75 43.4078C43.13 43.8659 43.4083 44.4432 43.5842 45.1405C43.7606 45.8378 43.8486 46.6656 43.8486 47.6232V52.9269H40.6791V51.8071H40.6159C40.3481 52.2436 39.9433 52.5817 39.4009 52.821C38.8584 53.0606 38.2704 53.1802 37.6365 53.1802C37.2138 53.1802 36.7771 53.1239 36.3267 53.0114C35.8755 52.8986 35.4636 52.7155 35.0905 52.4621C34.717 52.2084 34.4106 51.8704 34.1711 51.4479C33.9316 51.0253 33.812 50.5039 33.812 49.8843C33.812 49.1233 34.0198 48.5107 34.4353 48.046C34.8509 47.5809 35.386 47.2219 36.0411 46.9681C36.6964 46.7148 37.4251 46.5456 38.2282 46.4611C39.0309 46.3767 39.8129 46.3343 40.5735 46.3343V46.1654C40.5735 45.6442 40.3903 45.2604 40.0241 45.0137C39.6577 44.7673 39.2073 44.6439 38.6717 44.6439C38.1789 44.6439 37.7034 44.7499 37.2457 44.9609C36.788 45.1724 36.3969 45.4257 36.073 45.7216L34.3191 43.8411Z" fill="#1785C6"></path> <path d="M56.8833 47.6231C56.8833 48.3557 56.7708 49.0601 56.5452 49.7361C56.3198 50.4125 55.9922 51.0075 55.5627 51.5216C55.1329 52.0359 54.6083 52.4477 53.9884 52.7575C53.3689 53.0675 52.6644 53.2227 51.8756 53.2227C51.2276 53.2227 50.615 53.0924 50.0373 52.8316C49.4596 52.5712 49.0092 52.2155 48.6851 51.7646H48.6429V56.6464H45.1777V42.4042H48.4736V43.6932H48.5373C48.8612 43.2706 49.3084 42.9007 49.8789 42.5838C50.4494 42.2668 51.1221 42.1084 51.8967 42.1084C52.6576 42.1084 53.3477 42.2564 53.9675 42.5522C54.5874 42.8481 55.112 43.2493 55.5417 43.7567C55.9712 44.2636 56.3021 44.8516 56.5348 45.5209C56.7672 46.1899 56.8833 46.8906 56.8833 47.6231ZM53.5238 47.6231C53.5238 47.2852 53.4711 46.9542 53.3651 46.6301C53.2597 46.3063 53.1048 46.0207 52.9005 45.7746C52.6963 45.5277 52.4392 45.3271 52.1292 45.1724C51.8194 45.0172 51.4601 44.9397 51.0516 44.9397C50.6571 44.9397 50.3051 45.0172 49.9952 45.1724C49.6853 45.3271 49.421 45.5315 49.2025 45.7848C48.9842 46.0384 48.8153 46.3274 48.6956 46.6513C48.5757 46.9753 48.5162 47.3064 48.5162 47.6443C48.5162 47.9825 48.5757 48.3134 48.6956 48.6375C48.8153 48.9614 48.9842 49.2503 49.2025 49.5037C49.421 49.7573 49.6853 49.9617 49.9952 50.1165C50.3051 50.2716 50.6571 50.349 51.0516 50.349C51.4601 50.349 51.8194 50.2716 52.1292 50.1165C52.4392 49.9617 52.6963 49.7573 52.9005 49.5037C53.1048 49.2503 53.2597 48.958 53.3651 48.6268C53.4711 48.2959 53.5238 47.9613 53.5238 47.6231Z" fill="#1785C6"></path> <path d="M57.3311 42.4043H66.6492V45.0879H63.7124V52.9269H60.247V45.0879H57.3311V42.4043Z" fill="#1785C6"></path> </svg> 