<?xml version="1.0" encoding="UTF-8" standalone="no" ?>
<!DOCTYPE svg PUBLIC "-//W3C//DTD SVG 1.1//EN" "http://www.w3.org/Graphics/SVG/1.1/DTD/svg11.dtd">
<svg xmlns="http://www.w3.org/2000/svg" xmlns:xlink="http://www.w3.org/1999/xlink" version="1.1" width="500" height="500" viewBox="0 0 500 500" xml:space="preserve">
<desc>Created with Fabric.js 3.6.3</desc>
<defs>
</defs>
<g transform="matrix(1 0 0 1 250 250)"  >
<rect style="stroke: none; stroke-width: 1; stroke-dasharray: none; stroke-linecap: butt; stroke-dashoffset: 0; stroke-linejoin: miter; stroke-miterlimit: 4; fill: rgb(255,225,26); fill-rule: nonzero; opacity: 1;"  x="-250" y="-250" rx="0" ry="0" width="500" height="500" />
</g>
<g transform="matrix(0.6523958354807006 0 0 0.6523958354807006 250 240.5)"  >
<g style=""   >
		<g transform="matrix(8.32 0 0 8.32 4.160000000000025 4.160000000000025)"  >
<polygon style="stroke: none; stroke-width: 1; stroke-dasharray: none; stroke-linecap: butt; stroke-dashoffset: 0; stroke-linejoin: miter; stroke-miterlimit: 4; fill: rgb(55,65,64); fill-rule: nonzero; opacity: 1;"  points="40.2595,34.662000000000006 0.0005000000000094929,-34.66199999999999 -30.030499999999993,17.047000000000004 -19.653499999999994,17.047000000000004 -0.000499999999995282,-16.787999999999997 24.758500000000012,25.840000000000003 -11.878499999999995,25.840000000000003 -11.878499999999995,25.870000000000005 -35.153499999999994,25.870000000000005 -40.259499999999996,34.662000000000006 " />
</g>
		<g transform="matrix(1 0 0 1 10.196264695304762 180.16767234792295)" style=""  ><path fill="#000000" opacity="1" d="M-234.47 28.21L-234.47 28.21Q-236.36 28.21-237.30 27.27Q-238.24 26.32-238.24 24.44L-238.24 24.44L-238.24-25.04L-255.66-25.04Q-257.55-25.04-258.49-25.98Q-259.44-26.93-259.44-28.81L-259.44-28.81Q-259.44-30.70-258.49-31.64Q-257.55-32.58-255.66-32.58L-255.66-32.58L-213.28-32.58Q-211.39-32.58-210.45-31.64Q-209.51-30.70-209.51-28.81L-209.51-28.81Q-209.51-26.93-210.45-25.98Q-211.39-25.04-213.28-25.04L-213.28-25.04L-230.70-25.04L-230.70 24.44Q-230.70 26.23-231.67 27.22Q-232.63 28.21-234.47 28.21Z"/><path fill="#000000" opacity="1" d="M-172.42 28.21L-183.20 28.21Q-193.48 28.21-198.39 23.29Q-203.31 18.38-203.31 8.09L-203.31 8.09L-203.31-12.65Q-203.31-23.02-198.37-27.89Q-193.43-32.76-183.20-32.67L-183.20-32.67L-172.42-32.67Q-162.09-32.67-157.20-27.78Q-152.30-22.89-152.30-12.56L-152.30-12.56L-152.30 8.09Q-152.30 18.38-157.20 23.29Q-162.09 28.21-172.42 28.21L-172.42 28.21ZM-183.20 20.67L-183.20 20.67L-172.42 20.67Q-167.62 20.67-164.88 19.52Q-162.14 18.38-160.99 15.64Q-159.85 12.90-159.85 8.09L-159.85 8.09L-159.85-12.56Q-159.85-17.32-160.99-20.06Q-162.14-22.80-164.88-23.96Q-167.62-25.13-172.42-25.13L-172.42-25.13L-183.20-25.13Q-187.95-25.18-190.69-24.05Q-193.43-22.93-194.60-20.19Q-195.77-17.45-195.77-12.65L-195.77-12.65L-195.77 8.09Q-195.77 12.90-194.62 15.64Q-193.48 18.38-190.74 19.52Q-188.00 20.67-183.20 20.67Z"/><path fill="#000000" opacity="1" d="M-132.01 28.21L-132.01 28.21Q-135.78 28.21-135.78 24.44L-135.78 24.44L-135.78-28.90Q-135.78-32.67-132.01-32.67L-132.01-32.67L-111.00-32.67Q-102.78-32.67-98.40-28.30Q-94.02-23.92-94.02-15.70L-94.02-15.70L-94.02-13.01Q-94.02-4.79-98.40-0.41Q-102.78 3.96-111.00 3.96L-111.00 3.96L-128.24 3.96L-128.24 24.44Q-128.24 28.21-132.01 28.21ZM-128.24-25.13L-128.24-3.58L-111.00-3.58Q-105.88-3.58-103.72-5.73Q-101.57-7.89-101.57-13.01L-101.57-13.01L-101.57-15.70Q-101.57-20.78-103.72-22.95Q-105.88-25.13-111.00-25.13L-111.00-25.13L-128.24-25.13Z"/><path fill="#000000" opacity="1" d="M-55.32 28.21L-76.96 28.21Q-80.73 28.21-80.73 24.44L-80.73 24.44L-80.73-28.90Q-80.73-32.67-76.96-32.67L-76.96-32.67L-55.32-32.67Q-43.60-32.67-38.06-27.13Q-32.51-21.58-32.51-9.87L-32.51-9.87L-32.51 5.40Q-32.51 17.12-38.01 22.66Q-43.51 28.21-55.32 28.21L-55.32 28.21ZM-73.19-25.13L-73.19 20.67L-55.32 20.67Q-49.57 20.67-46.23 19.25Q-42.88 17.84-41.47 14.49Q-40.05 11.15-40.05 5.40L-40.05 5.40L-40.05-9.87Q-40.05-15.57-41.47-18.91Q-42.88-22.26-46.23-23.69Q-49.57-25.13-55.32-25.13L-55.32-25.13L-73.19-25.13Z"/><path fill="#000000" opacity="1" d="M-12.22 28.21L-12.22 28.21Q-14.15 28.21-15.07 27.29Q-15.99 26.37-15.99 24.44L-15.99 24.44L-15.99-28.81Q-15.99-30.79-15.07-31.69Q-14.15-32.58-12.22-32.58L-12.22-32.58Q-10.24-32.58-9.34-31.69Q-8.44-30.79-8.44-28.81L-8.44-28.81L-8.44 24.44Q-8.44 26.37-9.34 27.29Q-10.24 28.21-12.22 28.21Z"/><path fill="#000000" opacity="1" d="M38.97 28.21L28.19 28.21Q17.91 28.21 12.99 23.29Q8.08 18.38 8.08 8.09L8.08 8.09L8.08-12.56Q8.08-22.93 12.97-27.85Q17.87-32.76 28.10-32.67L28.10-32.67L38.97-32.67Q47.41-32.67 51.86-29.19Q56.30-25.72 57.02-18.22L57.02-18.22Q57.29-16.33 56.30-15.34Q55.31-14.36 53.43-14.36L53.43-14.36Q50.02-14.36 49.48-18.13L49.48-18.13Q49.03-22.26 46.63-23.69Q44.22-25.13 38.97-25.13L38.97-25.13L28.10-25.13Q23.34-25.18 20.63-24.05Q17.91-22.93 16.77-20.17Q15.62-17.41 15.62-12.56L15.62-12.56L15.62 8.09Q15.62 12.90 16.77 15.64Q17.91 18.38 20.65 19.52Q23.39 20.67 28.19 20.67L28.19 20.67L38.97 20.67Q43.15 20.67 45.50 19.75Q47.86 18.83 48.80 16.49Q49.75 14.16 49.75 9.89L49.75 9.89L49.75 5.67L42.74 5.58Q38.97 5.58 38.97 1.81L38.97 1.81Q38.97-1.96 42.74-1.96L42.74-1.96L53.52-1.87Q57.29-1.87 57.29 1.90L57.29 1.90L57.29 9.89Q57.29 19.45 52.84 23.83Q48.40 28.21 38.97 28.21L38.97 28.21Z"/><path fill="#000000" opacity="1" d="M76.73 28.21L76.73 28.21Q74.80 28.21 73.88 27.29Q72.96 26.37 72.96 24.44L72.96 24.44L72.96-28.81Q72.96-30.79 73.88-31.69Q74.80-32.58 76.73-32.58L76.73-32.58Q78.71-32.58 79.60-31.69Q80.50-30.79 80.50-28.81L80.50-28.81L80.50 24.44Q80.50 26.37 79.60 27.29Q78.71 28.21 76.73 28.21Z"/><path fill="#000000" opacity="1" d="M117.41 28.21L117.41 28.21Q115.52 28.21 114.58 27.27Q113.64 26.32 113.64 24.44L113.64 24.44L113.64-25.04L96.22-25.04Q94.33-25.04 93.39-25.98Q92.45-26.93 92.45-28.81L92.45-28.81Q92.45-30.70 93.39-31.64Q94.33-32.58 96.22-32.58L96.22-32.58L138.60-32.58Q140.49-32.58 141.43-31.64Q142.37-30.70 142.37-28.81L142.37-28.81Q142.37-26.93 141.43-25.98Q140.49-25.04 138.60-25.04L138.60-25.04L121.18-25.04L121.18 24.44Q121.18 26.23 120.22 27.22Q119.25 28.21 117.41 28.21Z"/></g></g>
</g>
</svg>
