<?xml version="1.0" encoding="UTF-8"?> <svg xmlns="http://www.w3.org/2000/svg" width="128" height="75" viewBox="0 0 128 75" fill="none"> <g clip-path="url(#clip0_823_2356)"> <path d="M47.2347 58.2421V55.4768C47.2347 54.4191 46.5897 53.7264 45.4824 53.7264C44.9287 53.7264 44.3267 53.909 43.9128 54.5103C43.5903 54.0056 43.128 53.7264 42.4346 53.7264C41.9723 53.7264 41.5101 53.866 41.1446 54.3707V53.8177H40.177V58.2421H41.1446V55.799C41.1446 55.0151 41.5584 54.6446 42.2035 54.6446C42.8485 54.6446 43.171 55.058 43.171 55.799V58.2421H44.1386V55.799C44.1386 55.0151 44.6008 54.6446 45.1975 54.6446C45.8425 54.6446 46.1651 55.058 46.1651 55.799V58.2421H47.2347ZM61.5867 53.8177H60.0171V52.4807H59.0496V53.8177H58.1734V54.6929H59.0496V56.7225C59.0496 57.7374 59.4635 58.3334 60.5708 58.3334C60.9847 58.3334 61.4469 58.1938 61.7695 58.0112L61.4899 57.1789C61.2104 57.3615 60.8879 57.4098 60.6568 57.4098C60.1945 57.4098 60.0117 57.1306 60.0117 56.6742V54.6929H61.5813V53.8177H61.5867ZM69.8001 53.721C69.2465 53.721 68.8756 54.0002 68.6444 54.3654V53.8123H67.6769V58.2367H68.6444V55.7453C68.6444 55.0097 68.9669 54.5909 69.569 54.5909C69.7517 54.5909 69.9829 54.6392 70.171 54.6822L70.4505 53.7586C70.257 53.721 69.9829 53.721 69.8001 53.721ZM57.3886 54.1828C56.9263 53.8606 56.2813 53.721 55.5879 53.721C54.4806 53.721 53.7442 54.2741 53.7442 55.1493C53.7442 55.8849 54.2978 56.3037 55.2654 56.438L55.7277 56.4863C56.2329 56.5776 56.5124 56.7172 56.5124 56.9481C56.5124 57.2702 56.1415 57.5011 55.4965 57.5011C54.8515 57.5011 54.3408 57.2702 54.0183 57.0393L53.556 57.7749C54.0613 58.1454 54.7547 58.328 55.4481 58.328C56.7382 58.328 57.48 57.7266 57.48 56.8997C57.48 56.1158 56.878 55.7024 55.9588 55.5628L55.4965 55.5144C55.0826 55.4661 54.7601 55.3748 54.7601 55.101C54.7601 54.7788 55.0826 54.5963 55.5933 54.5963C56.1469 54.5963 56.7006 54.8271 56.9801 54.9667L57.3886 54.1828ZM83.1308 53.721C82.5771 53.721 82.2062 54.0002 81.9751 54.3654V53.8123H81.0075V58.2367H81.9751V55.7453C81.9751 55.0097 82.2976 54.5909 82.8996 54.5909C83.0824 54.5909 83.3135 54.6392 83.5017 54.6822L83.7812 53.7694C83.593 53.721 83.3189 53.721 83.1308 53.721ZM70.7677 56.0299C70.7677 57.3669 71.6922 58.3334 73.122 58.3334C73.7671 58.3334 74.2293 58.1938 74.6916 57.8286L74.2293 57.0447C73.8584 57.3239 73.4929 57.4582 73.0736 57.4582C72.2889 57.4582 71.7352 56.9051 71.7352 56.0299C71.7352 55.1976 72.2889 54.6446 73.0736 54.6016C73.4875 54.6016 73.8584 54.7412 74.2293 55.0151L74.6916 54.2311C74.2293 53.8606 73.7671 53.7264 73.122 53.7264C71.6922 53.721 70.7677 54.6929 70.7677 56.0299ZM79.7175 56.0299V53.8177H78.7499V54.3707C78.4274 53.9573 77.9651 53.7264 77.3631 53.7264C76.116 53.7264 75.1485 54.6929 75.1485 56.0299C75.1485 57.3669 76.116 58.3334 77.3631 58.3334C78.0081 58.3334 78.4704 58.1025 78.7499 57.689V58.2421H79.7175V56.0299ZM76.1644 56.0299C76.1644 55.246 76.6697 54.6016 77.5029 54.6016C78.2877 54.6016 78.8413 55.203 78.8413 56.0299C78.8413 56.8138 78.2877 57.4582 77.5029 57.4582C76.6751 57.4098 76.1644 56.8085 76.1644 56.0299ZM64.5861 53.721C63.296 53.721 62.3715 54.6446 62.3715 56.0245C62.3715 57.4098 63.296 58.328 64.6345 58.328C65.2795 58.328 65.9245 58.1454 66.4352 57.7266L65.9729 57.034C65.602 57.3132 65.1397 57.4957 64.6828 57.4957C64.0808 57.4957 63.4842 57.2165 63.3444 56.438H66.6179C66.6179 56.2984 66.6179 56.2071 66.6179 56.0675C66.6609 54.6446 65.8278 53.721 64.5861 53.721ZM64.5861 54.5533C65.1881 54.5533 65.602 54.9238 65.6934 55.6111H63.3874C63.4788 55.0151 63.8927 54.5533 64.5861 54.5533ZM88.6243 56.0299V52.0673H87.6567V54.3707C87.3342 53.9573 86.872 53.7264 86.2699 53.7264C85.0229 53.7264 84.0553 54.6929 84.0553 56.0299C84.0553 57.3669 85.0229 58.3334 86.2699 58.3334C86.915 58.3334 87.3772 58.1025 87.6567 57.689V58.2421H88.6243V56.0299ZM85.0712 56.0299C85.0712 55.246 85.5765 54.6016 86.4097 54.6016C87.1945 54.6016 87.7481 55.203 87.7481 56.0299C87.7481 56.8138 87.1945 57.4582 86.4097 57.4582C85.5765 57.4098 85.0712 56.8085 85.0712 56.0299ZM52.6799 56.0299V53.8177H51.7123V54.3707C51.3898 53.9573 50.9275 53.7264 50.3255 53.7264C49.0784 53.7264 48.1109 54.6929 48.1109 56.0299C48.1109 57.3669 49.0784 58.3334 50.3255 58.3334C50.9705 58.3334 51.4328 58.1025 51.7123 57.689V58.2421H52.6799V56.0299ZM49.0838 56.0299C49.0838 55.246 49.5891 54.6016 50.4223 54.6016C51.2071 54.6016 51.7607 55.203 51.7607 56.0299C51.7607 56.8138 51.2071 57.4582 50.4223 57.4582C49.5891 57.4098 49.0838 56.8085 49.0838 56.0299Z" fill="black"></path> <path d="M71.6011 20.2159H57.0664V46.3006H71.6011V20.2159Z" fill="#EA6004"></path> <path d="M58.0335 33.2581C58.0335 27.9585 60.5276 23.2549 64.3548 20.2158C61.5382 18.0036 57.9851 16.6666 54.1096 16.6666C44.9286 16.6666 37.5 24.0872 37.5 33.2581C37.5 42.4291 44.9286 49.8496 54.1096 49.8496C57.9851 49.8496 61.5382 48.5126 64.3548 46.3004C60.5223 43.3043 58.0335 38.5577 58.0335 33.2581Z" fill="#E20B0F"></path> <path d="M91.2098 33.2581C91.2098 42.4291 83.7812 49.8496 74.6002 49.8496C70.7247 49.8496 67.1716 48.5126 64.355 46.3004C68.2305 43.256 70.6763 38.5577 70.6763 33.2581C70.6763 27.9585 68.1822 23.2549 64.355 20.2158C67.1662 18.0036 70.7193 16.6666 74.5949 16.6666C83.7812 16.6666 91.2098 24.1355 91.2098 33.2581Z" fill="#F49B00"></path> </g> <defs> <clipPath id="clip0_823_2356"> <rect width="53.7097" height="41.6667" fill="white" transform="translate(37.5 16.6666)"></rect> </clipPath> </defs> </svg> 