<?xml version="1.0" encoding="UTF-8"?> <svg xmlns="http://www.w3.org/2000/svg" width="67" height="66" viewBox="0 0 67 66" fill="none"><path d="M7.4565 51.9966C7.4109 51.9838 7.36531 51.971 7.31971 51.9582C4.73381 51.2191 2.45665 50.4291 0.487305 49.5903V42.1143C1.2568 46.338 3.86693 49.9195 7.4565 51.9966Z" fill="#64438A"></path><path d="M29.0027 11.2233C29.0027 5.4207 24.8621 1.24165 19.3193 0C20.6199 0.153425 21.9 0.394725 23.1592 0.722475C25.5262 1.33902 27.4737 2.11613 29.0027 3.05235V11.2228" fill="#FFB306"></path><path d="M30.8514 41.3053C30.8514 43.4761 30.4448 45.3134 29.6326 46.8177C28.8194 48.3225 27.7359 49.5309 26.3817 50.4424C25.027 51.3554 23.4514 52.0204 21.6531 52.4398C21.3087 52.5201 20.96 52.5928 20.6076 52.6574C22.738 51.115 24.1235 48.607 24.1235 45.776C24.1235 45.6901 24.1221 45.6041 24.1193 45.5186C24.134 45.3006 24.1416 45.0783 24.1416 44.8512C24.1416 42.633 23.5611 40.5857 22.4017 38.7114C21.2422 36.8366 19.7987 35.0249 18.0725 33.2731C16.6537 31.8348 15.1432 30.4222 13.541 29.0333C13.1928 28.7316 12.8408 28.431 12.4841 28.1317C10.4848 26.4554 8.62237 24.7535 6.89622 23.0274C5.16912 21.3012 3.7256 19.501 2.56612 17.6266C1.40617 15.7523 0.827148 13.7549 0.827148 11.6335C0.827148 10.0071 1.17247 8.47763 1.86265 7.04741C2.5533 5.61766 3.53892 4.35986 4.82142 3.27401C6.10297 2.18958 7.66905 1.33838 9.51822 0.721831C10.0901 0.530881 10.6872 0.369856 11.309 0.238281C10.0854 1.29801 9.10497 2.62991 8.46182 4.14041C7.84527 5.30891 7.53747 6.62513 7.53747 8.08908C7.53747 10.457 8.1165 12.6025 9.27597 14.5253C10.4354 16.4486 11.879 18.2489 13.6061 19.9251C15.0401 21.3188 16.5687 22.6778 18.1913 24.0025C18.5219 24.2723 18.8563 24.5407 19.1945 24.8077C21.1928 26.3856 23.0557 28.0134 24.7828 29.6907C26.509 31.3679 27.9525 33.143 29.112 35.0173C30.2715 36.8921 30.8519 38.9873 30.8519 41.3044L30.8514 41.3053Z" fill="#64438A"></path><path d="M44.9965 50.9505C43.4237 50.6013 42.3051 49.2072 42.3051 47.5965V6.59684C42.3051 5.75799 42.317 5.05595 42.3422 4.48832C42.3664 3.9207 42.478 3.41577 42.6747 2.97212C42.8718 2.52847 43.1682 2.12187 43.562 1.75137C43.9562 1.38182 44.5234 1.02367 45.2629 0.678344L45.4876 0.542969H32.2617L32.7054 0.69117C33.4445 1.03649 34.0121 1.39464 34.4059 1.76372C34.8001 2.13327 35.0965 2.53987 35.2932 2.98399C35.4903 3.42859 35.6 3.934 35.6257 4.5002C35.6499 5.06782 35.6627 5.76987 35.6627 6.60872V46.257C35.6627 47.0958 35.6499 47.7988 35.6257 48.3655C35.6 48.9331 35.4898 49.4381 35.2932 49.8817C35.096 50.3263 34.7996 50.7205 34.4059 51.0654C34.0121 51.4107 33.8093 51.7594 33.0702 52.1531L32.7054 52.3223H49.4615C48.8896 52.1209 48.017 52.0558 47.4964 51.7617L44.9965 50.9505Z" fill="#64438A"></path><path d="M65.8948 52.3227H56.8076C60.7943 51.425 63.8927 48.1803 64.5753 44.1157C64.6646 43.8112 64.7354 43.5139 64.7862 43.2236H65.0075L65.8948 52.3223V52.3227Z" fill="#FFB306"></path><path d="M48.168 57.5075C48.168 57.2472 48.3912 57.0239 48.6639 57.0239C48.9365 57.0239 49.1598 57.2472 49.1598 57.5075C49.1598 57.7678 48.9365 58.0034 48.6639 58.0034C48.3912 58.0034 48.168 57.7801 48.168 57.5075Z" fill="#64438A"></path><path d="M0 63.7909L0.57 63.4565C0.86735 64.4972 1.74752 65.204 3.17252 65.204C4.59752 65.204 5.35372 64.4606 5.35372 63.4688C5.35372 62.4276 4.4365 62.031 3.11077 61.6097C1.6606 61.1389 0.359575 60.73 0.359575 59.2176C0.359575 57.7926 1.51193 56.8877 2.9868 56.8877C4.46168 56.8877 5.35372 57.7056 5.77505 58.7093L5.2174 59.019C4.89535 58.2381 4.22608 57.5194 2.9868 57.5194C1.74753 57.5194 1.02885 58.2258 1.02885 59.1924C1.02885 60.2336 1.90855 60.5556 3.14782 60.9646C4.68445 61.4729 6.023 61.9559 6.023 63.4555C6.023 64.9551 4.89535 65.8348 3.17252 65.8348C1.54897 65.8348 0.396625 65.0168 0 63.7899V63.7909Z" fill="#4D4D4D"></path><path d="M17.6234 61.7707V65.6994H17.0036V61.7707C17.0036 60.5931 16.3219 59.9614 15.3553 59.9614C14.3146 59.9614 13.4962 60.6554 13.4962 62.2419V65.6994H12.8763V61.7707C12.8763 60.5931 12.2441 59.9614 11.2898 59.9614C10.2738 59.9614 9.3689 60.6554 9.3689 62.2419V65.6994H8.74902V59.503H9.3689V60.5689C9.82727 59.7139 10.5711 59.3667 11.3644 59.3667C12.2692 59.3667 12.9756 59.8127 13.2976 60.6307C13.7436 59.7633 14.5369 59.3667 15.3672 59.3667C16.681 59.3667 17.6225 60.2217 17.6225 61.7711L17.6234 61.7707Z" fill="#4D4D4D"></path><path d="M26.6931 59.5025V65.6989H26.0608V64.2986C25.5402 65.2282 24.586 65.8352 23.3966 65.8352C21.6367 65.8352 20.1865 64.4349 20.1865 62.6005C20.1865 60.766 21.6367 59.3657 23.3966 59.3657C24.5864 59.3657 25.5407 59.9728 26.0608 60.9024V59.502H26.6931V59.5025ZM26.0613 62.6009C26.0613 61.1261 24.9213 59.9614 23.4464 59.9614C21.9716 59.9614 20.8192 61.1265 20.8192 62.6009C20.8192 64.0753 21.9716 65.2405 23.4464 65.2405C24.9213 65.2405 26.0613 64.0753 26.0613 62.6009Z" fill="#4D4D4D"></path><path d="M32.5312 59.416V60.0107C31.4653 60.0107 30.4617 60.6676 30.4617 62.2537V65.6988H29.8418V59.5025H30.4617V60.717C30.883 59.7381 31.6886 59.416 32.5312 59.416Z" fill="#4D4D4D"></path><path d="M36.4354 60.1103V64.1378C36.4354 65.2284 37.0178 65.2531 38.2822 65.1415V65.6992C36.6587 65.9471 35.8037 65.5505 35.8037 64.1378V60.1103H34.4404V59.5033H35.8037V57.9543L36.4359 57.7686V59.5037H38.2827V60.1108H36.4359L36.4354 60.1103Z" fill="#4D4D4D"></path><path d="M45.8756 65.0794V65.6993H41.1289V57.0239H41.7858V65.0794H45.8756Z" fill="#4D4D4D"></path><path d="M48.9763 59.5024H48.3564V65.6988H48.9763V59.5024Z" fill="#4D4D4D"></path><path d="M57.3646 61.8453V65.6994H56.7324V61.8453C56.7324 60.7053 56.0755 59.9614 54.9108 59.9614C53.7461 59.9614 52.7419 60.7547 52.7419 62.4276V65.6994H52.1221V59.503H52.7419V60.6806C53.2127 59.7633 54.0059 59.3667 54.9602 59.3667C56.4351 59.3667 57.3646 60.3457 57.3646 61.8453Z" fill="#4D4D4D"></path><path d="M66.2016 62.6256C66.2016 62.7249 66.1893 62.8237 66.1893 62.923H60.5752C60.7239 64.3233 61.7898 65.2405 63.2025 65.2405C64.2185 65.2405 64.987 64.7693 65.3466 64.1129L65.8919 64.4349C65.3837 65.2776 64.417 65.8352 63.1901 65.8352C61.2816 65.8352 59.9307 64.472 59.9307 62.6005C59.9307 60.729 61.2445 59.3657 63.1407 59.3657C65.0369 59.3657 66.2016 60.927 66.2016 62.6252V62.6256ZM60.5752 62.3159H65.557C65.4207 60.804 64.3548 59.9614 63.1402 59.9614C61.7276 59.9614 60.6987 60.9403 60.5748 62.3159H60.5752Z" fill="#4D4D4D"></path></svg> 