<?xml version="1.0" encoding="UTF-8"?> <svg xmlns="http://www.w3.org/2000/svg" width="128" height="75" viewBox="0 0 128 75" fill="none"> <g clip-path="url(#clip0_823_2347)"> <path d="M52.7549 54.7126H44.2949L49.5864 21.4366H58.046L52.7549 54.7126Z" fill="#1434CB"></path> <path d="M83.4234 22.2501C81.7547 21.5768 79.108 20.8334 75.8354 20.8334C67.4809 20.8334 61.5977 25.3643 61.5616 31.8422C61.4922 36.6216 65.7738 39.2762 68.9761 40.8698C72.2491 42.4982 73.3618 43.5611 73.3618 45.0126C73.3284 47.2418 70.7169 48.2694 68.2812 48.2694C64.9036 48.2694 63.0938 47.7396 60.3435 46.4994L59.2295 45.9677L58.0457 53.4374C60.0298 54.3568 63.6855 55.1726 67.4809 55.2084C76.3577 55.2084 82.1368 50.7475 82.2053 43.8443C82.2391 40.0563 79.9782 37.1537 75.104 34.7819C72.1451 33.2594 70.333 32.2327 70.333 30.6749C70.3677 29.2587 71.8656 27.8081 75.2058 27.8081C77.9561 27.7371 79.9768 28.4094 81.5076 29.0822L82.2728 29.4356L83.4234 22.2501V22.2501Z" fill="#1434CB"></path> <path d="M94.6676 42.9241C95.3643 41.0124 98.0452 33.6138 98.0452 33.6138C98.0101 33.6848 98.7406 31.6668 99.1583 30.428L99.7495 33.2952C99.7495 33.2952 101.352 41.2604 101.7 42.9241C100.377 42.9241 96.3386 42.9241 94.6676 42.9241ZM105.11 21.4366H98.5666C96.5487 21.4366 95.0155 22.0379 94.1449 24.1976L81.5786 54.7121H90.4554C90.4554 54.7121 91.9169 50.6051 92.231 49.7205C93.2048 49.7205 101.84 49.7205 103.093 49.7205C103.336 50.8888 104.102 54.7121 104.102 54.7121H111.936L105.11 21.4366V21.4366Z" fill="#1434CB"></path> <path d="M37.2291 21.4366L28.9439 44.1276L28.0386 39.5256C26.5068 34.2155 21.7029 28.4462 16.342 25.5776L23.9309 54.6773H32.8772L46.1748 21.4366H37.2291V21.4366Z" fill="#1434CB"></path> <path d="M21.2503 21.4366H7.63901L7.49976 22.109C18.1174 24.8704 25.1493 31.5266 28.0384 39.527L25.0795 24.2338C24.5923 22.1085 23.0953 21.5068 21.2503 21.4366Z" fill="#1434CB"></path> </g> <defs> <clipPath id="clip0_823_2347"> <rect width="104.435" height="34.375" fill="white" transform="translate(7.5 20.8334)"></rect> </clipPath> </defs> </svg> 